:SAMPLES-PER-SECOND 30
:FULLY-SPECIFIED
:DEGREES
227
root  -86.8785 40.3764 -7.75487 15.6232 65.6553 11.559
RightUpLeg  -13.1327 -2.05537 -8.06823
RightLeg  23.8395 0.717718 0.154628
RightFoot  -14.2482 -0.078412 0.770572
RightToes  -3.0268e-009 0 -3.6325e-017
Spine  5.14822 0.181443 -4.3062
Spine1  3.41279 0.129137 -0.817361
HEad  -16.154 -11.9183 1.19056
LeftShoulder1  -0.599537 4.97351 -34.6223
LeftArm  -3.22605 -5.91716 -46.2375
LeftForeArm  35.0405 -6.71624 -9.28026
LeftHand  0.12731 11.0079 3.75925
RightShoulder  -1.24073 -6.68799 32.4258
RightArm  38.6194 -14.7136 38.0726
RightForeArm  5.83276 18.2793 6.41609
RightHand  0.131396 5.674 1.06162
LeftUpLeg  -2.26826 5.12044 -3.59033
LeftLeg  6.75382 0.754752 -1.24131
LeftFoot  -9.09111 0.0406022 0.715573
LeftToes  2.52475e-009 -1.26109e-010 3.16044e-011
228
root  -86.9484 40.4192 -7.59493 17.1764 69.4916 12.8401
RightUpLeg  -11.5993 2.65741 -7.4905
RightLeg  21.8733 -2.1867 -1.1775
RightFoot  -15.1767 -0.0985664 0.106643
RightToes  -3.0268e-009 0 -3.6325e-017
Spine  5.52959 -0.359534 -4.46243
Spine1  3.37918 -0.651829 0.14885
HEad  -17.2612 -11.8972 0.990074
LeftShoulder1  -0.614058 5.01552 -34.4551
LeftArm  -2.86081 -4.13825 -46.0678
LeftForeArm  35.1605 -7.28886 -9.23914
LeftHand  0.0188478 11.0259 1.55665
RightShoulder  -1.2818 -6.77682 32.6304
RightArm  36.7286 -15.3821 37.8797
RightForeArm  7.27196 17.1203 6.928
RightHand  -0.0174912 6.07497 -0.559793
LeftUpLeg  -3.11974 4.99876 -2.88697
LeftLeg  7.35197 -2.89946 -1.33411
LeftFoot  -8.88689 0.0298759 1.08941
LeftToes  2.52475e-009 -1.26109e-010 3.16044e-011
229
root  -86.9176 40.4977 -7.43732 18.2029 72.2421 13.5564
RightUpLeg  -10.4306 3.33654 -6.37312
RightLeg  20.4375 -5.05158 -2.29022
RightFoot  -14.7008 -0.121251 -0.753385
RightToes  -3.0268e-009 0 -3.6325e-017
Spine  5.05946 -0.241686 -3.94467
Spine1  4.24485 -0.683847 1.16654
HEad  -19.0521 -12.9381 1.43997
LeftShoulder1  -0.561969 4.87515 -34.7874
LeftArm  -1.4049 -2.85915 -45.4885
LeftForeArm  34.1191 -8.26608 -9.41896
LeftHand  0.00529464 10.4788 1.29418
RightShoulder  -1.28786 -6.78185 32.7424
RightArm  33.0918 -16.1199 37.4995
RightForeArm  8.99783 15.6991 7.37575
RightHand  -0.209377 5.07097 -2.60536
LeftUpLeg  -3.22448 4.89283 -2.16678
LeftLeg  6.7718 -5.43932 -1.4266
LeftFoot  -8.5094 0.0205058 1.25045
LeftToes  2.52475e-009 -1.26109e-010 3.16044e-011
230
root  -86.8583 40.5707 -7.30057 18.2666 73.9683 13.6627
RightUpLeg  -9.21367 1.82916 -5.65941
RightLeg  19.0263 -5.40466 -2.29018
RightFoot  -13.8066 -0.1197 -1.21791
RightToes  -3.0268e-009 0 -3.6325e-017
Spine  5.20633 -0.00206322 -2.08801
Spine1  4.59878 -0.1842 0.406643
HEad  -19.841 -10.5608 2.13864
LeftShoulder1  -0.661759 5.10704 -35.0941
LeftArm  1.58166 -1.33472 -44.4194
LeftForeArm  31.8493 -10.639 -9.26729
LeftHand  -0.0166147 8.1228 1.24712
RightShoulder  -1.40701 -7.01855 33.5008
RightArm  28.428 -15.7294 37.0056
RightForeArm  11.8081 13.5445 7.91
RightHand  -0.143059 4.60214 -2.15195
LeftUpLeg  -2.99538 4.41809 -1.77105
LeftLeg  6.49925 -6.54282 -0.920305
LeftFoot  -8.50757 0.0349134 0.657443
LeftToes  2.52475e-009 -1.26109e-010 3.16044e-011
231
root  -86.7853 40.5482 -7.17361 17.343 74.8664 12.9224
RightUpLeg  -8.34512 -2.13235 -5.2884
RightLeg  18.2066 -2.35525 -1.10684
RightFoot  -13.4982 -0.114969 -1.26558
RightToes  -3.0268e-009 0 -3.6325e-017
Spine  5.73898 0.50891 -0.00316202
Spine1  4.4461 0.670715 -0.630677
HEad  -19.6328 -10.4871 1.65023
LeftShoulder1  -0.641184 5.05214 -35.2132
LeftArm  4.22585 1.04146 -43.6091
LeftForeArm  28.1627 -13.3585 -8.29625
LeftHand  -0.0105148 7.3072 1.82499
RightShoulder  -1.41778 -7.02065 33.7731
RightArm  24.2217 -14.9568 36.9997
RightForeArm  14.6296 11.5453 8.08269
RightHand  -0.176166 0.995168 -3.33404
LeftUpLeg  -3.30792 3.87825 -1.37177
LeftLeg  7.78652 -6.80629 -0.579819
LeftFoot  -9.14875 0.0416384 0.697985
LeftToes  2.52475e-009 -1.26109e-010 3.16044e-011
